<svg width="24" height="24" viewBox="0 0 24 24" fill="none" xmlns="http://www.w3.org/2000/svg">
<g clip-path="url(#clip0_4448_71754)">
<g clip-path="url(#clip1_4448_71754)">
<rect x="1.5" y="5.51001" width="21" height="13" rx="2" fill="white"/>
<path d="M20.744 16.9693L19.8123 15.93L18.8447 16.9693H16.9454H12.8601V12.1314H10.9607L13.3259 6.72013H15.6195L16.4437 8.58361V6.72013H19.3106L19.8123 8.11774L20.314 6.72013H22.5V5.8959C22.5 5.3942 22.1058 5 21.6041 5H2.3959C1.8942 5 1.5 5.3942 1.5 5.8959V17.5426C1.5 18.0443 1.8942 18.4385 2.3959 18.4385H21.6041C22.1058 18.4385 22.5 18.0443 22.5 17.5426V16.9693H20.744Z" fill="#0071CE"/>
<path d="M20.9949 16.3959H22.5L20.529 14.2816L22.5 12.2031H21.0307L19.7764 13.5648L18.558 12.2031H17.0529L19.0597 14.3174L17.0529 16.3959H18.5222L19.7764 15.0341L20.9949 16.3959Z" fill="#0071CE"/>
<path d="M14.6518 15.4283V14.7833H17.017V13.8157H14.6518V13.1706H17.0529V12.2031H13.5051V16.3959H17.0529V15.4283H14.6518Z" fill="#0071CE"/>
<path d="M21.3891 11.5938H22.4641V7.36517L20.744 7.40101L19.8123 10.017L18.8447 7.40101H17.0529V11.5938H18.1996V8.65527L19.2747 11.5938H20.2781L21.3891 8.65527V11.5938Z" fill="#0071CE"/>
<path d="M15.2252 7.401H13.7559L11.8925 11.5938H13.1467L13.5051 10.7696H15.4402L15.7986 11.5938H17.0887L15.2252 7.401ZM13.8993 9.80202L14.4727 8.44025L15.046 9.80202H13.8993Z" fill="#0071CE"/>
<path d="M21.4607 14.2435L22.5 15.3902V13.0967L21.4607 14.2435Z" fill="#0071CE"/>
</g>
</g>
<defs>
<clipPath id="clip0_4448_71754">
<rect width="24" height="24" fill="white"/>
</clipPath>
<clipPath id="clip1_4448_71754">
<rect x="1.5" y="5" width="21" height="13.4385" rx="2" fill="white"/>
</clipPath>
</defs>
</svg>
