<svg width="24" height="24" viewBox="0 0 24 24" fill="none" xmlns="http://www.w3.org/2000/svg">
<path d="M15.2432 6.58026H8.75212V18.2196H15.2432V6.58026Z" fill="#EA611C"/>
<path d="M9.16598 12.4062C9.16598 10.1317 10.2096 7.98427 11.9979 6.58653C8.77779 4.0579 4.11949 4.61064 1.5867 7.82544C-0.946095 11.0402 -0.38608 15.6972 2.834 18.2195C5.52589 20.3288 9.30599 20.3288 11.9979 18.2195C10.2096 16.8218 9.16598 14.6744 9.16598 12.4062Z" fill="#E31221"/>
<path d="M23.9998 12.4062C23.9998 16.4978 20.6779 19.8079 16.586 19.8079C14.9251 19.8079 13.3087 19.2488 12.0041 18.2259C15.2242 15.6973 15.7842 11.0466 13.2514 7.83182C12.8886 7.36803 12.4686 6.94871 12.0041 6.58656C15.2242 4.05793 19.8825 4.61703 22.4153 7.83182C23.4398 9.1279 23.9998 10.7417 23.9998 12.4062Z" fill="#F49D1E"/>
<path d="M23.2873 16.987V16.7456H23.3828V16.6948H23.1346V16.7456H23.2428V16.987H23.2873ZM23.7646 16.987V16.7011H23.6882L23.5992 16.9045L23.5101 16.7011H23.4464V16.987H23.4973V16.771L23.5801 16.9553H23.6373L23.7201 16.771V16.987H23.7646Z" fill="#F49D1E"/>
</svg>
