<svg width="24" height="24" viewBox="0 0 24 24" fill="none" xmlns="http://www.w3.org/2000/svg">
<g clip-path="url(#clip0_4448_71742)">
<path d="M9.10345 8.67583L5.93103 16.262H3.86207L2.34483 10.1931C2.2069 9.77927 2.2069 9.64134 1.93103 9.50341C1.37931 9.22755 0.689655 8.95169 0 8.81376V8.53789H3.31034C3.72414 8.53789 4.13793 8.81376 4.27586 9.36548L5.10345 13.7793L7.17241 8.67583C7.03448 8.67583 9.10345 8.67583 9.10345 8.67583ZM17.1034 13.7793C17.1034 11.8482 14.3448 11.7103 14.3448 10.7448C14.3448 10.4689 14.6207 10.1931 15.1724 10.0551C15.4483 10.0551 16.2759 10.0551 17.1034 10.331L17.3793 8.67583C16.9655 8.53789 16.2759 8.39996 15.5862 8.39996C13.6552 8.39996 12.2759 9.36548 12.2759 10.8827C12.2759 11.9862 13.2414 12.5379 13.931 12.9517C14.7586 13.3655 14.8966 13.5034 14.8966 13.9172C14.8966 14.4689 14.3448 14.6069 13.7931 14.6069C12.8276 14.6069 12.2759 14.331 11.8621 14.1931L11.5862 15.8482C12 16.1241 12.8276 16.262 13.7931 16.262C15.8621 16.262 17.1034 15.2965 17.1034 13.7793ZM22.2069 16.1241H24L22.4828 8.53789H20.8276C20.4138 8.53789 20.1379 8.81376 20 9.08962L17.1034 16.1241H19.1724L19.5862 15.0207H22.069L22.2069 16.1241ZM20.1379 13.5034L21.1034 10.7448L21.6552 13.5034H20.1379ZM11.8621 8.67583L10.2069 16.262H8.27586L9.93103 8.67583H11.8621Z" fill="#1434CB"/>
</g>
<defs>
<clipPath id="clip0_4448_71742">
<rect width="24" height="24" fill="white"/>
</clipPath>
</defs>
</svg>
